<svg xmlns="http://www.w3.org/2000/svg" xmlns:xlink="http://www.w3.org/1999/xlink" fill="none" version="1.1" width="28" height="28" viewBox="0 0 28 28"><defs><clipPath id="master_svg0_42_2361"><rect x="0" y="0" width="28" height="28" rx="0"/></clipPath><clipPath id="master_svg1_42_2363"><rect x="9" y="14" width="10" height="10" rx="0"/></clipPath></defs><g clip-path="url(#master_svg0_42_2361)"><g><path d="M24.5,10.499998247070312L24.5,24.491828247070313C24.5045,25.136128247070314,23.9858,25.662128247070314,23.3415,25.666628247070314L4.6585,25.666628247070314C4.019133,25.666628247070314,3.500643929,25.148728247070313,3.5,24.50932824707031L3.5,3.4906582470703125C3.5,2.8641612470703124,4.0215,2.3333282470703125,4.66433,2.3333282470703125L16.3333,2.3333282470703125L16.3333,9.333328247070312C16.3333,9.977658247070313,16.8557,10.499998247070312,17.5,10.499998247070312L24.5,10.499998247070312ZM24.5,8.166658247070313L18.6667,8.166658247070313L18.6667,2.3368282670703127L24.5,8.166658247070313Z" fill="#FF9900" fill-opacity="0.8509804010391235"/></g><g clip-path="url(#master_svg1_42_2363)"><g><path d="M9.8333740234375,15.66375C9.8349607034375,15.436065,10.0190240234375,15.25181595,10.2467070234375,15.25L17.7533740234375,15.25C17.9817040234375,15.25,18.1667040234375,15.435417,18.1667040234375,15.66375L18.1667040234375,22.33625C18.1651240234375,22.56393,17.9810540234375,22.748179999999998,17.7533740234375,22.75L10.2467070234375,22.75C10.0183620234375,22.749769999999998,9.833373973767,22.56459,9.8333740234375,22.33625L9.8333740234375,15.66375ZM13.4258740234375,17.50625C13.374784023437499,17.47216,13.3090740234375,17.46894,13.254894023437501,17.49786C13.200704023437499,17.52678,13.1668240234375,17.58316,13.1667040234375,17.64458L13.1667040234375,20.35542C13.1668240234375,20.41684,13.200704023437499,20.47322,13.254894023437501,20.50214C13.3090740234375,20.53106,13.374784023437499,20.52784,13.4258740234375,20.49375L15.4587940234375,19.13875C15.5578940234375,19.0728,15.5578940234375,18.9272,15.4587940234375,18.86125L13.4254540234375,17.50625L13.4258740234375,17.50625Z" fill="#FFFFFF" fill-opacity="1"/></g></g></g></svg>