<svg xmlns="http://www.w3.org/2000/svg" xmlns:xlink="http://www.w3.org/1999/xlink" fill="none" version="1.1" width="156" height="48" viewBox="0 0 156 48"><g style="mix-blend-mode:passthrough"><path d="M8.46094,38.6445L2.37891,38.6445L2.37891,9.66406L7.99219,9.66406L17.2031,23.668L17.4258,23.668L26.6367,9.66406L32.2617,9.66406L32.2617,38.6445L26.1328,38.6445L26.1328,21.4062L25.9219,21.4062L19.6523,30.6875L14.9766,30.6875L8.67188,21.5469L8.46094,21.5469L8.46094,38.6445ZM56.0625,26.375Q56.0625,28.6367,55.5938,30.2656L42.1289,30.2656Q42.8203,34.1445,46.5234,34.1445Q47.8242,34.1445,48.8672,33.3945Q49.9102,32.6328,50.5195,31.3086L55.5234,33.4648Q54.4453,36.1602,52.0781,37.6602Q49.7227,39.1484,46.4883,39.1484Q43.2422,39.1484,40.793,37.8008Q38.3555,36.4531,37.0312,33.957Q35.7188,31.4492,35.7188,28.0977Q35.7188,24.6055,37.0195,22.0391Q38.3203,19.4609,40.6758,18.0547Q43.0312,16.6484,46.1953,16.6484Q49.1484,16.6484,51.375,17.8438Q53.6133,19.0273,54.832,21.2305Q56.0625,23.4219,56.0625,26.375ZM49.875,25.2617Q49.875,23.6328,48.8789,22.625Q47.8945,21.6172,46.1953,21.6172Q43.1016,21.6172,42.2344,25.2617L49.875,25.2617ZM59.0859,38.6445L59.0859,17.1523L65.168,17.1523L65.168,19.8945L65.3906,19.8945Q66.3281,18.3125,67.8047,17.4805Q69.2812,16.6484,71.1797,16.6484Q73.0195,16.6484,74.332,17.5039Q75.6445,18.3477,76.3008,19.9648L76.5117,19.9648Q77.6602,18.3125,79.2422,17.4805Q80.8359,16.6484,83.0273,16.6484Q86.0508,16.6484,87.7383,18.7109Q89.4375,20.7617,89.4375,24.5L89.4375,38.6445L83.3555,38.6445L83.3555,25.9062Q83.3555,24.207,82.6523,23.2812Q81.9492,22.3438,80.6133,22.3438Q79.0312,22.3438,78.1641,23.375Q77.3086,24.3945,77.3086,26.2695L77.3086,38.6445L71.2148,38.6445L71.2148,25.9062Q71.2148,24.207,70.5117,23.2812Q69.8203,22.3438,68.4844,22.3438Q66.9023,22.3438,66.0352,23.375Q65.168,24.3945,65.168,26.2695L65.168,38.6445L59.0859,38.6445ZM113.062,26.375Q113.062,28.6367,112.594,30.2656L99.1289,30.2656Q99.8203,34.1445,103.523,34.1445Q104.824,34.1445,105.867,33.3945Q106.91,32.6328,107.52,31.3086L112.523,33.4648Q111.445,36.1602,109.078,37.6602Q106.723,39.1484,103.488,39.1484Q100.242,39.1484,97.793,37.8008Q95.3555,36.4531,94.0312,33.957Q92.7188,31.4492,92.7188,28.0977Q92.7188,24.6055,94.0195,22.0391Q95.3203,19.4609,97.6758,18.0547Q100.031,16.6484,103.195,16.6484Q106.148,16.6484,108.375,17.8438Q110.613,19.0273,111.832,21.2305Q113.062,23.4219,113.062,26.375ZM106.875,25.2617Q106.875,23.6328,105.879,22.625Q104.895,21.6172,103.195,21.6172Q100.102,21.6172,99.2344,25.2617L106.875,25.2617ZM124.301,39.1484Q120.914,39.1484,118.465,37.5898Q116.016,36.0195,115.078,33.3945L120.152,31.2266Q120.656,32.5977,121.734,33.3711Q122.824,34.1445,124.219,34.1445Q125.52,34.1445,126.164,33.7227Q126.82,33.2891,126.82,32.5273Q126.82,31.7773,126,31.25Q125.191,30.7227,123.574,30.3711Q119.719,29.5039,117.574,27.8516Q115.441,26.1875,115.441,23.4219Q115.441,21.3711,116.496,19.8477Q117.562,18.3125,119.508,17.4805Q121.453,16.6484,124.008,16.6484Q127.137,16.6484,129.551,18.1953Q131.965,19.7422,133.008,22.3789L127.969,24.5Q127.324,23.1641,126.27,22.3906Q125.227,21.6172,124.113,21.6172Q122.93,21.6172,122.297,22.0742Q121.664,22.5195,121.664,23.2812Q121.664,24.0664,122.508,24.5703Q123.363,25.0742,125.59,25.5781Q133.043,27.1953,133.043,32.2812Q133.043,34.2617,131.906,35.832Q130.781,37.3906,128.777,38.2695Q126.785,39.1484,124.301,39.1484ZM142.031,39.1484Q139.184,39.1484,137.32,37.5195Q135.469,35.8789,135.469,32.9961Q135.469,30.7695,136.723,29.082Q137.988,27.3828,140.309,26.4688Q142.641,25.543,145.734,25.543L147.68,25.543L147.68,25.0039Q147.68,23.4219,146.789,22.5781Q145.91,21.7227,144.328,21.7227Q142.066,21.7227,140.227,23.9609L136.266,20.9375Q139.758,16.6484,145.125,16.6484Q147.68,16.6484,149.66,17.6797Q151.641,18.6992,152.719,20.5391Q153.797,22.3789,153.797,24.793L153.797,38.6445L147.68,38.6445L147.68,36.1953L147.457,36.1953Q146.812,37.6367,145.371,38.3867Q143.93,39.1484,142.031,39.1484ZM143.93,34.1445Q145.559,34.1445,146.613,33.4062Q147.68,32.668,147.68,31.3789L147.68,30.5117L146.344,30.5117Q144.012,30.5117,142.852,30.9805Q141.703,31.4492,141.703,32.5625Q141.703,33.2422,142.289,33.6992Q142.887,34.1445,143.93,34.1445Z" fill="#FFFFFF" fill-opacity="1"/></g></svg>