<?xml version="1.0" standalone="no"?><!DOCTYPE svg PUBLIC "-//W3C//DTD SVG 1.1//EN" "http://www.w3.org/Graphics/SVG/1.1/DTD/svg11.dtd"><svg t="1681479537672" class="icon" viewBox="0 0 1024 1024" version="1.1" xmlns="http://www.w3.org/2000/svg" p-id="2876" xmlns:xlink="http://www.w3.org/1999/xlink" width="32" height="32"><path d="M151.552 217.088c-9.556992 0-17.408 3.072-23.552 9.216s-9.216 13.995008-9.216 23.552v524.288c0 9.556992 3.072 17.408 9.216 23.552s13.995008 9.216 23.552 9.216h720.896c9.556992 0 17.408-3.072 23.552-9.216s9.216-13.995008 9.216-23.552V249.856c0-9.556992-3.072-17.408-9.216-23.552s-13.995008-9.216-23.552-9.216H151.552z m0-65.536h720.896c27.988992 0.683008 51.2 10.24 69.632 28.672s27.988992 41.643008 28.672 69.632v524.288c-0.683008 27.988992-10.24 51.2-28.672 69.632s-41.643008 27.988992-69.632 28.672H151.552c-27.988992-0.683008-51.2-10.24-69.632-28.672s-27.988992-41.643008-28.672-69.632V249.856c0.683008-27.988992 10.24-51.2 28.672-69.632s41.643008-27.988992 69.632-28.672z m557.056 163.84c18.432 0.683008 33.792 7.168 46.08 19.456s18.432 27.648 18.432 46.08-6.144 33.792-18.432 46.08-27.648 18.432-46.08 18.432-33.792-6.144-46.08-18.432-18.432-27.648-18.432-46.08 6.144-33.792 18.432-46.08 27.648-18.772992 46.08-19.456zM282.624 446.464h262.144c21.844992 0 32.768 10.923008 32.768 32.768s-10.923008 32.768-32.768 32.768H282.624c-21.844992 0-32.768-10.923008-32.768-32.768s10.923008-32.768 32.768-32.768z m0 131.072h262.144c21.844992 0 32.768 10.923008 32.768 32.768s-10.923008 32.768-32.768 32.768H282.624c-21.844992 0-32.768-10.923008-32.768-32.768s10.923008-32.768 32.768-32.768z" p-id="2877" fill="#ff9900"></path></svg>