<?xml version="1.0" standalone="no"?><!DOCTYPE svg PUBLIC "-//W3C//DTD SVG 1.1//EN" "http://www.w3.org/Graphics/SVG/1.1/DTD/svg11.dtd"><svg t="1678064850726" class="icon" viewBox="0 0 1024 1024" version="1.1" xmlns="http://www.w3.org/2000/svg" p-id="2797" width="16" height="16" xmlns:xlink="http://www.w3.org/1999/xlink"><path d="M692.49584 475.428571q0-105.714286-75.142857-180.857142T436.49584 219.428571 255.638697 294.571429 180.49584 475.428571t75.142857 180.857143T436.49584 731.428571t180.857143-75.142857T692.49584 475.428571z m292.571429 475.428572q0 29.714286-21.714286 51.428571t-51.428572 21.714286q-30.857143 0-51.428571-21.714286l-196-195.428571q-102.285714 70.857143-228 70.857143-81.714286 0-156.285714-31.714286t-128.571429-85.714286-85.714286-128.571428T34.210126 475.428571t31.714285-156.285714 85.714286-128.571428 128.571429-85.714286T436.49584 73.142857t156.285714 31.714286 128.571429 85.714286 85.714286 128.571428T838.781554 475.428571q0 125.714286-70.857143 228l196 196q21.142857 21.142857 21.142858 51.428572z" p-id="2798" fill="#ffffff"></path></svg>