<?xml version="1.0" standalone="no"?><!DOCTYPE svg PUBLIC "-//W3C//DTD SVG 1.1//EN" "http://www.w3.org/Graphics/SVG/1.1/DTD/svg11.dtd"><svg t="1680714028491" class="icon" viewBox="0 0 1024 1024" version="1.1" xmlns="http://www.w3.org/2000/svg" p-id="3702" xmlns:xlink="http://www.w3.org/1999/xlink" width="16" height="16"><path d="M686.944 384h85.344V277.344h102.4V192h-102.4V85.344h-85.344V192h-102.4v85.344h102.4z" p-id="3703" fill="#ff9900"></path><path d="M791.456 471.456v356.256l-266.656-147.2-290.144 149.344v-659.2h288V85.312H213.312c-36.256 0-64 29.856-64 64v742.4c0 17.056 8.544 32 23.456 40.544s32 8.544 44.8 2.144l305.056-157.856 285.856 157.856c6.4 4.256 14.944 4.256 21.344 4.256 8.544 0 17.056-2.144 23.456-6.4 14.944-8.544 23.456-23.456 23.456-40.544V471.456h-85.344z" p-id="3704" fill="#ff9900"></path></svg>