<?xml version="1.0" standalone="no"?><!DOCTYPE svg PUBLIC "-//W3C//DTD SVG 1.1//EN" "http://www.w3.org/Graphics/SVG/1.1/DTD/svg11.dtd"><svg t="1680541381181" class="icon" viewBox="0 0 1263 1024" version="1.1" xmlns="http://www.w3.org/2000/svg" p-id="12766" width="19.734375" height="16" xmlns:xlink="http://www.w3.org/1999/xlink"><path d="M1072.23345406 992h-896.4631725A143.9943975 143.9943975 0 0 1 32 848.11766094v-672.34737938A143.9943975 143.9943975 0 0 1 175.77028156 32h896.4631725a143.9943975 143.9943975 0 0 1 143.88233906 143.77028156v672.34737938a143.9943975 143.9943975 0 0 1-143.88233906 143.88233906z m-896.4631725-896.4631725a80.34551156 80.34551156 0 0 0-80.23345406 80.23345406v672.34737938A80.34551156 80.34551156 0 0 0 175.77028156 928.4631725h896.4631725a80.34551156 80.34551156 0 0 0 80.34551156-80.34551156v-672.34737938a80.34551156 80.34551156 0 0 0-80.34551156-80.23345406z" p-id="12767" fill="#ff9900"></path><path d="M388.68028437 571.78288812a143.88233906 143.88233906 0 1 1 143.88234001-143.88233906 143.9943975 143.9943975 0 0 1-143.88234001 143.88233906z m1e-8-224.11579312A80.34551156 80.34551156 0 1 0 469.02579688 427.90054906a80.34551156 80.34551156 0 0 0-80.3455125-80.23345406z" p-id="12768" fill="#ff9900"></path><path d="M556.76712969 739.8697325A31.8244425 31.8244425 0 0 1 525.05474469 708.04529a136.37446031 136.37446031 0 0 0-272.63686219 0 31.8244425 31.8244425 0 1 1-63.5368275 0 199.91128781 199.91128781 0 0 1 399.71051719 0 31.8244425 31.8244425 0 0 1-31.8244425 31.8244425zM1027.41029563 395.40375875h-336.17368969a31.8244425 31.8244425 0 0 1 0-63.5368275h336.17368969a31.8244425 31.8244425 0 1 1 0 63.5368275zM960.1755575 672.85911031h-268.93895156a31.8244425 31.8244425 0 0 1 0-63.5368275h268.93895156a31.8244425 31.8244425 0 1 1 0 63.5368275zM803.2945025 534.131435h-112.05789656a31.8244425 31.8244425 0 0 1 0-63.5368275h112.05789656a31.8244425 31.8244425 0 1 1 0 63.5368275z" p-id="12769" fill="#ff9900"></path></svg>